# File created by Blade
# Date/Time:  Fri Jan 16 17:19:08 2015
# Frame Rate: 120.000 fps
#------------------------------------------------------
:FULLY-SPECIFIED
:DEGREES
3809
root -5.221898 35.174044 -9.038097 1.832116 -4.427285 -6.584947
Spine -7.566922 -4.234856 6.362312
Head 14.811664 -10.693431 -6.084227
LeftShoulder -22.303398 13.440121 -11.534556
LeftArm 12.245059 -18.706767 -77.046593
LeftForeArm 14.382129 -0.000000 9.691193
LeftHand 0.146773 -0.000000 -4.310084
LeftHandThumb1 -26.253704 0.000000 33.147579
RightShoulder -15.105844 12.120333 -10.231472
RightArm -47.490891 62.498468 1.556865
RightForeArm 48.488393 -0.000000 67.993606
RightHand 11.976121 -0.000000 -11.278920
RightHandThumb1 -24.326973 -0.000000 -32.862282
LeftUpLeg 9.705405 12.788284 6.685491
LeftLeg -9.573782 -0.000000 0.000000
LeftFoot -16.774242 29.161050 -7.857310
LeftToeBase 22.872594 -0.000000 -0.000000
RightUpLeg 6.232580 -5.257006 4.606204
RightLeg -4.356578 -0.000000 0.000000
RightFoot -5.625740 -27.834038 5.429464
RightToeBase 13.305254 -0.000000 -0.000000
3810
root -5.221859 35.174645 -9.046786 1.832431 -4.402293 -6.573176
Spine -7.502092 -4.122953 6.320891
Head 14.655100 -10.793716 -6.030862
LeftShoulder -22.293785 13.424365 -11.559730
LeftArm 12.287691 -18.702765 -77.020696
LeftForeArm 14.431797 0.000000 9.736045
LeftHand 0.109560 -0.000000 -4.296505
LeftHandThumb1 -26.253704 0.000000 33.147579
RightShoulder -15.030504 12.102244 -10.201764
RightArm -46.508454 61.944909 2.511494
RightForeArm 48.576212 -0.000000 66.947401
RightHand 11.715037 0.000000 -11.238886
RightHandThumb1 -24.326973 -0.000000 -32.862282
LeftUpLeg 9.694386 12.800847 6.675510
LeftLeg -9.598657 -0.000000 0.000000
LeftFoot -16.728485 29.127359 -7.850031
LeftToeBase 22.843204 -0.000000 -0.000000
RightUpLeg 6.224339 -5.286760 4.597055
RightLeg -4.371920 -0.000000 0.000000
RightFoot -5.614282 -27.842708 5.412432
RightToeBase 13.309968 -0.000000 -0.000000
3811
root -5.222469 35.175292 -9.055777 1.817285 -4.364260 -6.566190
Spine -7.402234 -4.053982 6.289556
Head 14.464070 -10.870687 -5.978190
LeftShoulder -22.299910 13.392688 -11.581900
LeftArm 12.341696 -18.679311 -77.008824
LeftForeArm 14.476588 -0.000000 9.742915
LeftHand 0.075787 -0.000000 -4.224496
LeftHandThumb1 -26.253704 0.000000 33.147579
RightShoulder -14.931824 12.115583 -10.171170
RightArm -45.593727 61.500679 3.397346
RightForeArm 48.447423 -0.000000 65.851795
RightHand 11.689019 -0.000000 -11.221830
RightHandThumb1 -24.326973 -0.000000 -32.862282
LeftUpLeg 9.676359 12.838742 6.673606
LeftLeg -9.586248 -0.000000 0.000000
LeftFoot -16.694089 29.085430 -7.803442
LeftToeBase 22.847148 -0.000000 -0.000000
RightUpLeg 6.238451 -5.302351 4.593452
RightLeg -4.396381 -0.000000 0.000000
RightFoot -5.586020 -27.850587 5.421110
RightToeBase 13.258298 -0.000000 -0.000000
3812
root -5.219576 35.176179 -9.067314 1.809507 -4.298691 -6.556239
Spine -7.321365 -3.997242 6.278200
Head 14.302044 -10.948140 -5.969043
LeftShoulder -22.273589 13.369358 -11.610032
LeftArm 12.399705 -18.646778 -76.994996
LeftForeArm 14.468858 0.000000 9.711728
LeftHand 0.118581 -0.000000 -4.280985
LeftHandThumb1 -26.253704 0.000000 33.147579
RightShoulder -14.829094 12.113696 -10.157492
RightArm -44.814522 61.099670 4.138227
RightForeArm 48.171974 -0.000000 64.718943
RightHand 11.617328 -0.000000 -11.004448
RightHandThumb1 -24.326973 -0.000000 -32.862282
LeftUpLeg 9.639956 12.776320 6.653039
LeftLeg -9.571062 -0.000000 0.000000
LeftFoot -16.665264 29.099625 -7.772426
LeftToeBase 22.818406 -0.000000 -0.000000
RightUpLeg 6.237621 -5.364246 4.580995
RightLeg -4.412516 -0.000000 0.000000
RightFoot -5.571741 -27.842115 5.415130
RightToeBase 13.282671 -0.000000 -0.000000
3813
root -5.220634 35.176888 -9.076734 1.812759 -4.270197 -6.551693
Spine -7.266379 -3.911175 6.261495
Head 14.168118 -11.005991 -5.960592
LeftShoulder -22.291705 13.370967 -11.630264
LeftArm 12.502526 -18.599479 -76.991476
LeftForeArm 14.489705 -0.000000 9.650584
LeftHand 0.174811 -0.000000 -4.304482
LeftHandThumb1 -26.253704 0.000000 33.147579
RightShoulder -14.681244 12.096416 -10.107883
RightArm -44.157343 60.703866 4.733116
RightForeArm 47.721169 -0.000000 63.538666
RightHand 11.576172 -0.000000 -10.774426
RightHandThumb1 -24.326973 -0.000000 -32.862282
LeftUpLeg 9.603934 12.827201 6.651744
LeftLeg -9.554699 -0.000000 0.000000
LeftFoot -16.660110 29.036104 -7.763332
LeftToeBase 22.852712 -0.000000 -0.000000
RightUpLeg 6.235875 -5.352249 4.586124
RightLeg -4.447948 -0.000000 0.000000
RightFoot -5.535669 -27.887029 5.396478
RightToeBase 13.289678 -0.000000 -0.000000
3814
root -5.221123 35.177632 -9.086927 1.822534 -4.234955 -6.548548
Spine -7.220967 -3.848204 6.260374
Head 14.036973 -11.046149 -5.994616
LeftShoulder -22.274604 13.349571 -11.642592
LeftArm 12.465721 -18.468598 -76.940454
LeftForeArm 14.388559 -0.000000 9.740893
LeftHand 0.171555 -0.000000 -4.250248
LeftHandThumb1 -26.253704 0.000000 33.147579
RightShoulder -14.548169 12.135337 -10.091841
RightArm -43.553048 60.352272 5.274142
RightForeArm 47.023036 -0.000000 62.364978
RightHand 11.408671 -0.000000 -10.522761
RightHandThumb1 -24.326973 -0.000000 -32.862282
LeftUpLeg 9.569645 12.829543 6.645070
LeftLeg -9.563049 -0.000000 0.000000
LeftFoot -16.632295 29.029082 -7.728559
LeftToeBase 22.896221 -0.000000 -0.000000
RightUpLeg 6.220060 -5.383795 4.589643
RightLeg -4.468591 -0.000000 0.000000
RightFoot -5.507183 -27.901736 5.385385
RightToeBase 13.253989 -0.000000 -0.000000
3815
root -5.221975 35.178302 -9.096094 1.826027 -4.210654 -6.549307
Spine -7.162634 -3.765820 6.268808
Head 13.895613 -11.070708 -6.006547
LeftShoulder -22.259084 13.354778 -11.662462
LeftArm 12.439070 -18.333781 -76.917327
LeftForeArm 14.321821 0.000000 9.900475
LeftHand 0.053819 -0.000000 -4.120273
LeftHandThumb1 -26.253704 0.000000 33.147579
RightShoulder -14.401435 12.174371 -10.089178
RightArm -43.003190 59.924755 5.798552
RightForeArm 46.335419 -0.000000 61.195097
RightHand 11.372739 -0.000000 -10.279446
RightHandThumb1 -24.326973 -0.000000 -32.862282
LeftUpLeg 9.547463 12.816850 6.651694
LeftLeg -9.557793 -0.000000 0.000000
LeftFoot -16.574612 28.996313 -7.617602
LeftToeBase 22.872472 -0.000000 -0.000000
RightUpLeg 6.216097 -5.391023 4.596260
RightLeg -4.495862 -0.000000 0.000000
RightFoot -5.488285 -27.912356 5.391861
RightToeBase 13.281157 -0.000000 -0.000000
